<svg id="Layer_1" data-name="Layer 1" xmlns="http://www.w3.org/2000/svg" viewBox="0 0 730.02 300"><defs><style>.cls-1{fill:#062a42;}.cls-2{fill:#ff7f00;}</style></defs><title>cansr_logo</title><path class="cls-1" d="M143.8,120a18.27,18.27,0,0,0-10.41,2.83,22.59,22.59,0,0,0-6.85,7.3A31.55,31.55,0,0,0,122.8,140a53.58,53.58,0,0,0-1.09,10.69,51.21,51.21,0,0,0,1.09,10.4,32.19,32.19,0,0,0,3.56,9.59,20.37,20.37,0,0,0,6.66,7,18.41,18.41,0,0,0,10.24,2.75q9.3,0,14.33-5.21t6.3-14h25q-2.57,18.8-14.61,28.67t-30.87,9.86A51.89,51.89,0,0,1,124,196.3a43.21,43.21,0,0,1-15.07-10,45.41,45.41,0,0,1-9.68-15.25,52.75,52.75,0,0,1-3.47-19.46A62.7,62.7,0,0,1,99,131.27a45.66,45.66,0,0,1,9.4-16.25,43.15,43.15,0,0,1,15.16-10.69A51.61,51.61,0,0,1,144,100.5a59.32,59.32,0,0,1,16.17,2.19A43.25,43.25,0,0,1,174,109.36a34.46,34.46,0,0,1,14.33,26.94H163Q160.42,120,143.8,120Z"/><path class="cls-1" d="M198.77,132.1q.55-9.13,4.57-15.16a31,31,0,0,1,10.22-9.69,44.85,44.85,0,0,1,14-5.2,79.94,79.94,0,0,1,15.62-1.55,105.77,105.77,0,0,1,14.43,1,44.39,44.39,0,0,1,13.33,3.93,26.22,26.22,0,0,1,9.86,8.13q3.84,5.2,3.84,13.79v49.13a98.45,98.45,0,0,0,.73,12.24c.48,3.89,1.34,6.81,2.56,8.76H261.6a36,36,0,0,1-1.19-4.48,39.29,39.29,0,0,1-.64-4.66,33.68,33.68,0,0,1-14.61,8.95A58.45,58.45,0,0,1,228,199.85a46.59,46.59,0,0,1-12.6-1.64,29,29,0,0,1-10.22-5.12,23.88,23.88,0,0,1-6.86-8.76,29.72,29.72,0,0,1-2.46-12.6q0-8,2.83-13.25a23.59,23.59,0,0,1,7.3-8.3,32.71,32.71,0,0,1,10.24-4.66,107.61,107.61,0,0,1,11.59-2.46q5.83-.92,11.51-1.47a68.56,68.56,0,0,0,10-1.64,17.69,17.69,0,0,0,6.94-3.19,7,7,0,0,0,2.38-6.13A13.67,13.67,0,0,0,257.3,124a10.07,10.07,0,0,0-3.65-3.84,14.35,14.35,0,0,0-5.29-1.82,42.59,42.59,0,0,0-6.48-.46q-7.68,0-12.06,3.29t-5.12,11Zm59.91,19.18a12,12,0,0,1-4.11,2.27,42.62,42.62,0,0,1-5.3,1.38c-1.89.36-3.86.66-5.94.91s-4.14.55-6.2.91a49.06,49.06,0,0,0-5.76,1.46,17.13,17.13,0,0,0-4.93,2.47,11.6,11.6,0,0,0-3.38,3.93,12.61,12.61,0,0,0-1.28,6,12.25,12.25,0,0,0,1.28,5.85,9.68,9.68,0,0,0,3.47,3.73,14.26,14.26,0,0,0,5.11,1.92,32.28,32.28,0,0,0,6,.55q7.67,0,11.88-2.56a17.14,17.14,0,0,0,6.2-6.11,19.64,19.64,0,0,0,2.47-7.22,50.54,50.54,0,0,0,.46-5.84Z"/><path class="cls-1" d="M322,103.06V116.2h.55a29.83,29.83,0,0,1,12.79-12,37,37,0,0,1,16.07-3.74q10.4,0,17.07,2.83A25.4,25.4,0,0,1,379,111.18a30.78,30.78,0,0,1,5.39,12.24,76.5,76.5,0,0,1,1.54,16v58.08H360V144.15q0-11.7-3.65-17.44t-13-5.75q-10.59,0-15.34,6.3T323.32,148v49.5H297.39V103.06Z"/><path class="cls-1" d="M420.2,174a15.17,15.17,0,0,0,4.48,4.93,19.15,19.15,0,0,0,6.3,2.83,29.57,29.57,0,0,0,7.39.91,27.53,27.53,0,0,0,5.76-.64,19.53,19.53,0,0,0,5.48-2,12.55,12.55,0,0,0,4.11-3.66,9.61,9.61,0,0,0,1.64-5.75q0-5.85-7.76-8.77A155.4,155.4,0,0,0,426,156q-5.67-1.28-11-3a37.47,37.47,0,0,1-9.59-4.56,22.31,22.31,0,0,1-6.76-7.12,20.12,20.12,0,0,1-2.55-10.5q0-9.13,3.56-15a26.25,26.25,0,0,1,9.41-9.23,41.34,41.34,0,0,1,13.14-4.74,80.5,80.5,0,0,1,15-1.37A75.09,75.09,0,0,1,452,102a39.43,39.43,0,0,1,12.88,4.94,29.5,29.5,0,0,1,9.4,9.21q3.75,5.76,4.48,14.52H454.08c-.36-5-2.26-8.37-5.66-10.13a26,26,0,0,0-12.05-2.65,45.24,45.24,0,0,0-4.75.27,16,16,0,0,0-4.66,1.19A9.65,9.65,0,0,0,423.4,122a7,7,0,0,0-1.46,4.66,7.12,7.12,0,0,0,2.55,5.66,19.56,19.56,0,0,0,6.67,3.55,79.9,79.9,0,0,0,9.41,2.47q5.3,1.09,10.77,2.38a107.83,107.83,0,0,1,11.05,3.11,36.1,36.1,0,0,1,9.59,4.83,23.64,23.64,0,0,1,6.76,7.49,22,22,0,0,1,2.56,11q0,9.32-3.75,15.61a29.93,29.93,0,0,1-9.77,10.14A40.27,40.27,0,0,1,454,198.3a80.75,80.75,0,0,1-15.79,1.55,78.61,78.61,0,0,1-16.08-1.64,42.63,42.63,0,0,1-14-5.48,31.31,31.31,0,0,1-10-10.14c-2.61-4.2-4.05-9.47-4.28-15.8h24.65A14.21,14.21,0,0,0,420.2,174Z"/><path class="cls-1" d="M513.8,103.06v17.53h.36a32.73,32.73,0,0,1,12.06-14.53,35.27,35.27,0,0,1,8.58-4.1,31.08,31.08,0,0,1,9.5-1.46,20.18,20.18,0,0,1,5.66.91v24.11c-1.22-.24-2.68-.46-4.38-.64a47.08,47.08,0,0,0-4.93-.27,27.63,27.63,0,0,0-12,2.37,21,21,0,0,0-8,6.48,26,26,0,0,0-4.28,9.6,51.74,51.74,0,0,0-1.28,11.87v42.55H489.14V103.06Z"/><rect class="cls-2" x="606.95" y="66.86" width="14.85" height="42.05"/><rect class="cls-2" x="610.19" y="80.46" width="25.21" height="14.85"/><rect class="cls-2" x="564" y="63.52" width="42.05" height="14.85" transform="translate(42.91 302.02) rotate(-30)"/><rect class="cls-2" x="573.4" y="51.04" width="14.85" height="25.21" transform="translate(45.99 298.94) rotate(-30)"/><rect class="cls-2" x="577.61" y="83.8" width="14.85" height="42.05" transform="translate(201.73 559.06) rotate(-60)"/><rect class="cls-2" x="568.21" y="104.7" width="25.21" height="14.85" transform="translate(193.31 559.06) rotate(-60)"/></svg>