<?xml version="1.0" encoding="utf-8"?>
<!-- Generator: Adobe Illustrator 22.1.0, SVG Export Plug-In . SVG Version: 6.00 Build 0)  -->
<svg version="1.1" id="Layer_1" xmlns="http://www.w3.org/2000/svg" xmlns:xlink="http://www.w3.org/1999/xlink" x="0px" y="0px"
	 viewBox="0 0 730 300" style="enable-background:new 0 0 730 300;" xml:space="preserve">
<style type="text/css">
	.st0{fill:#062A42;}
	.st1{fill:#FF7F00;}
	.st2{fill:#EC7A29;}
	.st3{font-family:'ArialMT';}
	.st4{font-size:26px;}
</style>
<title>cansr_logo</title>
<path class="st0" d="M143.8,120c-3.7-0.1-7.3,0.9-10.4,2.8c-2.8,1.9-5.1,4.4-6.8,7.3c-1.8,3.1-3.1,6.4-3.7,9.9
	c-0.7,3.5-1.1,7.1-1.1,10.7c0,3.5,0.4,7,1.1,10.4c0.7,3.4,1.9,6.6,3.6,9.6c1.6,2.8,3.9,5.2,6.7,7c3.1,1.9,6.6,2.9,10.2,2.8
	c6.2,0,11-1.7,14.3-5.2c3.4-3.5,5.5-8.1,6.3-14h25c-1.7,12.5-6.6,22.1-14.6,28.7c-8,6.6-18.3,9.9-30.9,9.9
	c-6.6,0.1-13.2-1.1-19.4-3.4c-5.7-2.2-10.8-5.6-15.1-10c-4.2-4.4-7.5-9.6-9.7-15.3c-2.4-6.2-3.5-12.8-3.5-19.5
	c-0.1-6.9,1-13.8,3.2-20.3c2-6,5.2-11.5,9.4-16.3c4.2-4.6,9.4-8.3,15.2-10.7c6.5-2.7,13.4-4,20.4-3.8c5.5,0,10.9,0.7,16.2,2.2
	c5,1.4,9.7,3.6,13.8,6.7c8.7,6.3,14,16.2,14.3,26.9H163C161.3,125.4,154.9,120,143.8,120z"/>
<path class="st0" d="M198.8,132.1c0.4-6.1,1.9-11.1,4.6-15.2c2.6-4,6.1-7.3,10.2-9.7c4.3-2.5,9.1-4.3,14-5.2
	c5.1-1,10.4-1.5,15.6-1.6c4.8,0,9.6,0.3,14.4,1c4.6,0.6,9.1,1.9,13.3,3.9c3.9,1.9,7.3,4.6,9.9,8.1c2.6,3.5,3.8,8.1,3.8,13.8v49.1
	c0,4.1,0.2,8.2,0.7,12.2c0.5,3.9,1.3,6.8,2.6,8.8h-26.3c-0.5-1.5-0.9-3-1.2-4.5c-0.3-1.5-0.5-3.1-0.6-4.7c-4,4.2-9,7.3-14.6,8.9
	c-5.6,1.7-11.3,2.6-17.2,2.6c-4.3,0-8.5-0.5-12.6-1.6c-3.7-1-7.2-2.8-10.2-5.1c-2.9-2.3-5.3-5.3-6.9-8.8c-1.7-4-2.6-8.3-2.5-12.6
	c0-5.3,0.9-9.8,2.8-13.3c1.7-3.3,4.2-6.2,7.3-8.3c3.1-2.1,6.6-3.7,10.2-4.7c3.8-1,7.7-1.9,11.6-2.5c3.9-0.6,7.7-1.1,11.5-1.5
	c3.4-0.3,6.7-0.8,10-1.6c2.5-0.5,4.9-1.6,6.9-3.2c1.8-1.5,2.7-3.8,2.4-6.1c0.1-2.3-0.4-4.6-1.4-6.6c-0.9-1.6-2.1-2.9-3.6-3.8
	c-1.6-0.9-3.4-1.6-5.3-1.8c-2.1-0.3-4.3-0.5-6.5-0.5c-5.1,0-9.1,1.1-12.1,3.3c-2.9,2.2-4.6,5.9-5.1,11L198.8,132.1z M258.7,151.3
	c-1.2,1-2.6,1.8-4.1,2.3c-1.7,0.6-3.5,1-5.3,1.4c-1.9,0.4-3.9,0.7-5.9,0.9s-4.1,0.6-6.2,0.9c-1.9,0.4-3.9,0.9-5.8,1.5
	c-1.8,0.6-3.4,1.4-4.9,2.5c-1.4,1-2.6,2.4-3.4,3.9c-0.9,1.9-1.4,3.9-1.3,6c-0.1,2,0.4,4,1.3,5.9c0.8,1.5,2,2.8,3.5,3.7
	c1.6,1,3.3,1.6,5.1,1.9c2,0.4,4,0.6,6,0.6c5.1,0,9.1-0.9,11.9-2.6c2.6-1.5,4.7-3.6,6.2-6.1c1.3-2.2,2.1-4.7,2.5-7.2
	c0.3-1.9,0.4-3.9,0.5-5.8L258.7,151.3z"/>
<path class="st0" d="M322,103.1v13.1h0.5c3-5.2,7.4-9.4,12.8-12c5-2.4,10.5-3.7,16.1-3.7c6.9,0,12.6,0.9,17.1,2.8
	c4.1,1.7,7.8,4.4,10.5,7.9c2.7,3.6,4.5,7.8,5.4,12.2c1.1,5.3,1.6,10.6,1.5,16v58.1H360v-53.4c0-7.8-1.2-13.6-3.6-17.4
	c-2.4-3.8-6.8-5.7-13-5.8c-7.1,0-12.2,2.1-15.3,6.3c-3.2,4.2-4.7,11.1-4.7,20.7v49.5h-25.9v-94.4H322z"/>
<path class="st0" d="M420.2,174c1.1,2,2.6,3.6,4.5,4.9c1.9,1.3,4,2.3,6.3,2.8c2.4,0.6,4.9,0.9,7.4,0.9c1.9,0,3.9-0.2,5.8-0.6
	c1.9-0.4,3.8-1.1,5.5-2c1.6-0.9,3-2.2,4.1-3.7c1.1-1.7,1.7-3.7,1.6-5.8c0-3.9-2.6-6.8-7.8-8.8c-7.1-2.5-14.3-4.4-21.6-5.8
	c-3.8-0.9-7.4-1.9-11-3c-3.4-1.1-6.6-2.6-9.6-4.6c-2.8-1.8-5.1-4.3-6.8-7.1c-1.8-3.2-2.7-6.8-2.5-10.5c0-6.1,1.2-11.1,3.6-15
	c2.3-3.8,5.5-7,9.4-9.2c4.1-2.3,8.5-3.9,13.1-4.7c4.9-0.9,10-1.4,15-1.4c5,0,9.9,0.5,14.8,1.5c4.6,0.9,8.9,2.5,12.9,4.9
	c3.8,2.3,7,5.5,9.4,9.2c2.5,3.8,4,8.7,4.5,14.5h-24.7c-0.4-5-2.3-8.4-5.7-10.1c-3.7-1.8-7.9-2.7-12-2.7c-1.6,0-3.2,0.1-4.8,0.3
	c-1.6,0.2-3.2,0.6-4.7,1.2c-1.4,0.6-2.6,1.5-3.6,2.7c-1,1.3-1.5,3-1.5,4.7c-0.1,2.2,0.9,4.3,2.5,5.7c2,1.6,4.2,2.8,6.7,3.6
	c3.1,1,6.2,1.8,9.4,2.5c3.5,0.7,7.1,1.5,10.8,2.4c3.7,0.8,7.4,1.9,11,3.1c3.4,1.1,6.7,2.8,9.6,4.8c2.8,2,5.1,4.5,6.8,7.5
	c1.8,3.4,2.7,7.2,2.6,11c0,6.2-1.3,11.4-3.8,15.6c-2.4,4.1-5.8,7.6-9.8,10.1c-4.2,2.6-8.9,4.5-13.8,5.4c-5.2,1-10.5,1.6-15.8,1.6
	c-5.4,0-10.8-0.5-16.1-1.6c-5-1-9.7-2.8-14-5.5c-4.1-2.6-7.5-6-10-10.1c-2.6-4.2-4-9.5-4.3-15.8h24.6
	C418.4,169.3,419,171.8,420.2,174z"/>
<path class="st0" d="M513.8,103.1v17.5h0.4c2.5-5.9,6.7-11,12.1-14.5c2.7-1.7,5.5-3.1,8.6-4.1c3.1-1,6.3-1.5,9.5-1.5
	c1.9,0,3.8,0.3,5.7,0.9v24.1c-1.2-0.2-2.7-0.5-4.4-0.6c-1.6-0.2-3.3-0.3-4.9-0.3c-4.1-0.1-8.2,0.7-12,2.4c-3.2,1.5-5.9,3.7-8,6.5
	c-2.1,2.9-3.5,6.1-4.3,9.6c-0.9,3.9-1.3,7.9-1.3,11.9v42.6h-25.9v-94.4H513.8z"/>
<rect x="607" y="66.9" class="st1" width="14.8" height="42.1"/>
<rect x="610.2" y="80.5" class="st1" width="25.2" height="14.8"/>
<rect x="564" y="63.5" transform="matrix(0.866 -0.5 0.5 0.866 42.9052 302.0197)" class="st1" width="42" height="14.9"/>
<rect x="573.4" y="51" transform="matrix(0.866 -0.5 0.5 0.866 45.9925 298.9378)" class="st1" width="14.8" height="25.2"/>
<rect x="577.6" y="83.8" transform="matrix(0.5 -0.866 0.866 0.5 201.7398 559.0583)" class="st1" width="14.8" height="42.1"/>
<rect x="568.2" y="104.7" transform="matrix(0.5 -0.866 0.866 0.5 193.3099 559.0663)" class="st1" width="25.2" height="14.8"/>
<text transform="matrix(1 0 0 1 95.7763 237.8898)" class="st2 st3 st4">Transforming second opinions for patients with cancer</text>
</svg>
